<?xml version="1.0" standalone="no"?>
<!DOCTYPE svg PUBLIC "-//W3C//DTD SVG 1.1//EN" "http://www.w3.org/Graphics/SVG/1.1/DTD/svg11.dtd" >
<svg xmlns="http://www.w3.org/2000/svg">
<metadata>
This is a custom SVG webfont generated by Font Squirrel.
Designer    : Oded Ezer
Foundry     : Oded Ezer
Foundry URL : http://odedezer.com
</metadata>
<defs>
<font id="webfontFbELOGwu" horiz-adv-x="0" >
<font-face units-per-em="1000" ascent="700" descent="-300" />
<missing-glyph horiz-adv-x="228" />
<glyph unicode=" "  horiz-adv-x="228" />
<glyph unicode="&#x09;" horiz-adv-x="228" />
<glyph unicode="&#xa0;" horiz-adv-x="228" />
<glyph unicode="!" horiz-adv-x="294" d="M200 555v-69l-25 -296h-75l-26 296v69h126zM196 -1h-118v116h118v-116z" />
<glyph unicode="&#x22;" horiz-adv-x="355" d="M310 534l-80 -94h-35l25 93h-20v121h110v-120zM164 534l-81 -94h-34l25 93h-20v121h110v-120z" />
<glyph unicode="#" horiz-adv-x="411" d="M362 182h-71l-19 -87h-83l19 87h-45l-19 -87h-83l19 87h-29v78h45l8 36h-53v79h71l18 86h83l-19 -86h45l18 86h85l-19 -86h29v-79h-46l-8 -36h54v-78zM242 309h-61l-13 -62h61z" />
<glyph unicode="$" horiz-adv-x="524" d="M443 172q0 -71 -47 -121q-40 -43 -113 -57v-69h-85v67q-74 12 -112 57.5t-51 125.5l121 13q8 -48 42 -79v122q-145 44 -145 172q0 65 41 107.5t104 51.5v37h85v-38q64 -10 99 -47t47 -104l-113 -15q-2 23 -11.5 44t-21.5 28v-127q77 -21 118.5 -58t41.5 -110zM198 353 v112q-29 -22 -29 -58q0 -35 29 -54zM322 159q0 18 -12 32q-13 13 -27 19v-107q16 7 27.5 22.5t11.5 33.5z" />
<glyph unicode="%" horiz-adv-x="677" d="M639 134q0 -76 -35 -115q-36 -39 -94 -39q-68 0 -99.5 42t-31.5 112q0 68 31 110.5t98 42.5t99 -42t32 -111zM538 135q0 64 -13 83q-6 9 -17 9q-29 0 -29 -92t29 -92q30 0 30 92zM530 564l-290 -583h-107l292 583h105zM285 411q0 -77 -34 -115q-36 -39 -94 -39 q-68 0 -99.5 42t-31.5 112q0 68 31 110.5t98 42.5t98.5 -42t31.5 -111zM185 412q0 64 -13 83q-6 9 -17 9q-29 0 -29 -92q0 -93 29 -93q30 0 30 93z" />
<glyph unicode="&#x26;" horiz-adv-x="912" d="M834 508l-132 -410l-377 -124l-77 282l93 134l70 -254l190 67l74 230l-58 27l59 122zM550 271l-125 -36v181h-219v-400l-134 -36v420l39 27l-82 32l60 123l71 -33h390v-278z" />
<glyph unicode="'" horiz-adv-x="210" d="M158 536l-81 -96h-34l25 93h-20v121h110v-118z" />
<glyph unicode="(" horiz-adv-x="311" d="M235 636q-60 -134 -77 -205q-17 -76 -17 -158q0 -124 42 -242q13 -36 52 -119h-100q-119 184 -119 368q0 183 121 356h98z" />
<glyph unicode=")" horiz-adv-x="311" d="M295 280q0 -78 -24 -166q-30 -103 -96 -202h-99q40 85 59.5 143.5t29.5 136.5q5 32 5 81q0 98 -22.5 176t-71.5 187h97q122 -172 122 -356z" />
<glyph unicode="*" horiz-adv-x="354" d="M312 478q-20 -5 -53 -8.5t-34 -3.5q7 -8 30.5 -31.5t32.5 -34.5l-76 -50l-41 78q0 -1 -15 -31.5t-28 -49.5l-75 58q5 5 66 62l-5 1q-75 15 -80 17l29 86q13 -5 27 -13l30 -16q14 -9 18 -11q0 3 -5.5 35t-5.5 50h88q0 -8 -12 -89l35 19q32 16 47 22z" />
<glyph unicode="+" horiz-adv-x="466" d="M424 269l-142 10l10 -143h-118l10 143l-142 -10v121l142 -9l-10 141h118l-10 -141l142 9v-121z" />
<glyph unicode="," horiz-adv-x="242" d="M158 9l-81 -101h-34l25 93h-20v121h110v-113z" />
<glyph unicode="-" horiz-adv-x="434" d="M392 336l-39 -107h-311l40 107h310z" />
<glyph unicode="." horiz-adv-x="241" d="M157 0h-115v109h115v-109z" />
<glyph unicode="/" horiz-adv-x="406" d="M326 564l-142 -571h-104l140 571h106z" />
<glyph unicode="0" horiz-adv-x="531" d="M463 274q0 -156 -59 -228q-51 -60 -139 -60q-89 0 -143 65q-54 66 -54 225q0 286 197 286q198 0 198 -288zM321 274q0 90 -10 125q-13 48 -46 48t-44 -43q-11 -39 -11 -130q0 -142 29 -164q12 -9 26 -9q33 0 45 44q11 38 11 129z" />
<glyph unicode="1" horiz-adv-x="314" d="M237 17l-123 -36v384q-22 -17 -77 -46v127q39 25 60.5 48.5t35.5 62.5h104v-540z" />
<glyph unicode="2" horiz-adv-x="485" d="M462 125l-59 -125h-373q8 74 41 125t125 131q70 63 87 85q20 27 20 54q0 56 -59 56q-37 0 -54 -27.5t-17 -68.5l-126 61q22 79 64 110q53 40 136 40q89 0 141 -46q53 -48 53 -118q0 -34 -10.5 -64.5t-32.5 -58.5t-41 -47t-49 -46q-35 -30 -85 -61h239z" />
<glyph unicode="3" horiz-adv-x="506" d="M438 171q0 -78 -59 -131q-59 -54 -145 -54q-80 0 -136 45q-39 33 -55 103l111 54q2 -36 22.5 -61.5t56.5 -25.5q30 0 47.5 21.5t17.5 52.5t-17.5 50.5t-47.5 19.5h-27v97q7 0 12.5 0.5t9 1t7.5 1.5l6 1q2 1 5 3.5t4 3t4.5 3.5t4.5 4q16 13 16 44q0 21 -13 32.5t-34 11.5 q-70 0 -72 -85l-110 53q7 90 95 128q41 18 90 18q85 0 137 -53q44 -42 44 -99q0 -65 -59 -108q39 -17 62 -52t23 -79z" />
<glyph unicode="4" horiz-adv-x="500" d="M497 225l-56 -118h-37v-90l-129 -35v125h-238v107l254 343h113v-332h93zM281 217v152l-111 -152h111z" />
<glyph unicode="5" horiz-adv-x="530" d="M462 185q0 -69 -44 -127q-58 -76 -163 -76q-158 0 -192 144l125 61q6 -93 68 -93q35 0 50.5 26t15.5 64q0 37 -17 60t-52 23q-39 0 -81 -43l-102 50l55 273h293l37 -125h-224l-10 -52q29 8 55 8q81 0 133.5 -55t52.5 -138z" />
<glyph unicode="6" horiz-adv-x="550" d="M481 183q0 -88 -55 -143q-54 -53 -140 -53q-92 0 -152 67q-58 67 -58 217q0 153 61 221q61 70 159 70q71 0 116 -38q34 -28 56 -89l-105 -51q-19 64 -73 64q-36 0 -55 -30t-25 -70q38 25 93 25q77 0 127.5 -55.5t50.5 -134.5zM346 182q0 43 -19 64q-18 21 -49 21 q-30 0 -46 -22.5t-16 -53.5q0 -34 17.5 -62t49.5 -28t47.5 24t15.5 57z" />
<glyph unicode="7" horiz-adv-x="430" d="M404 452q-47 -43 -95 -123q-95 -161 -94 -329h-134q6 230 154 423h-224l37 125h356v-96z" />
<glyph unicode="8" horiz-adv-x="536" d="M468 168q0 -81 -55 -132q-55 -50 -142 -50q-84 0 -143.5 46.5t-59.5 130.5q0 91 76 136q-62 37 -62 110q0 67 49 110q47 43 135 43q85 0 134 -43q50 -42 50 -110q0 -71 -59 -109q77 -45 77 -132zM319 402q0 23 -14 35q-14 14 -38 14t-38.5 -12.5t-14.5 -36.5 q0 -50 52 -50q53 0 53 50zM332 172q0 30 -18 50q-18 18 -46 18q-30 0 -47 -18.5t-17 -48.5q0 -33 17 -54t48 -21t47 20.5t16 53.5z" />
<glyph unicode="9" horiz-adv-x="542" d="M474 278q0 -152 -61 -222q-61 -69 -160 -69q-71 0 -115 37q-35 29 -56 90l116 56q6 -22 11.5 -34t18.5 -23.5t32 -11.5q36 0 55 30.5t24 69.5q-35 -25 -92 -25q-78 0 -128.5 55t-50.5 135q0 88 55 142t141 54q93 0 151 -68q59 -66 59 -216zM333 358q0 47 -21 70 q-17 19 -47 19q-31 0 -46.5 -24t-15.5 -56q0 -35 17.5 -60.5t50.5 -25.5q30 0 46 22.5t16 54.5z" />
<glyph unicode=":" horiz-adv-x="267" d="M162 311h-110v129h110v-129zM162 2h-110v129h110v-129z" />
<glyph unicode=";" horiz-adv-x="268" d="M163 309h-110v131h110v-131zM163 6l-80 -111h-35l25 101h-20v131h110v-121z" />
<glyph unicode="&#x3c;" horiz-adv-x="409" d="M334 100l-334 132v86l334 131v-109l-215 -65l215 -66v-109z" />
<glyph unicode="=" horiz-adv-x="498" d="M440 305h-382v102h382v-102zM440 142h-382v98h382v-98z" />
<glyph unicode="&#x3e;" horiz-adv-x="409" d="M409 232l-333 -132v109l214 66l-214 65v109l333 -131v-86z" />
<glyph unicode="?" horiz-adv-x="503" d="M419 395q0 -39 -24 -71q-8 -10 -18 -19.5t-35 -28.5l-33 -27q-34 -29 -34 -60h-100q0 7 1 19t16.5 46t44.5 65l23 23l17 18l8 8q10 13 10 30q0 27 -21 41.5t-48 14.5q-40 0 -57.5 -24t-27.5 -71l-109 53q16 73 65.5 110.5t124.5 37.5q88 0 143 -49q54 -49 54 -116z M287 -1h-126v116h126v-116z" />
<glyph unicode="@" horiz-adv-x="755" d="M722 253l-2 -14q0 -39 -46 -109q-58 -91 -132 -91q-28 0 -40 4q-38 12 -64 54q-42 -60 -114 -60q-96 0 -100 106q-1 7 -1 16q0 59 26 113q14 29 47 70q42 51 107 51q54 0 87 -51l7 39h70l-65 -278q19 -28 45 -28q58 0 98 82q33 69 33 133q-14 100 -84 164q-71 65 -170 65 q-16 0 -23 -1q-223 -22 -279 -260q-9 -39 -9 -74q0 -120 90 -196q86 -71 208 -71q99 0 183 51l12 -33q-112 -57 -222 -57q-156 0 -262 115q-82 88 -82 212q0 117 76 208q127 154 322 154q144 0 222 -107q62 -86 62 -193v-14zM464 226q8 37 8 58q0 64 -46 71q-30 0 -67 -43 q-30 -36 -42 -69q-15 -47 -15 -83q0 -30 9 -52q12 -31 37 -31q89 17 116 149z" />
<glyph unicode="A" horiz-adv-x="722" d="M711 18v-18h-261v18q67 3 67 41q0 22 -19 67l-40 96h-257l-45 -105q-16 -36 -16 -57q0 -38 76 -42v-18h-208v18q41 8 54 19q23 21 55 95l233 545h17l230 -551q22 -53 40 -74q27 -31 74 -34zM216 258h228l-112 267z" />
<glyph unicode="B" horiz-adv-x="667" d="M612 181q0 -53 -32.5 -97t-83.5 -63q-57 -21 -167 -21h-312v18h25q41 0 59 26q11 17 11 73v428q0 61 -14 78q-20 21 -56 21h-25v18h286q166 0 234 -68q45 -44 45 -109q0 -110 -121 -147q151 -31 151 -157zM479 489q0 71 -60 109q-49 31 -126 31q-50 0 -87 -10v-255 q34 -7 91 -7q125 0 162 63q20 32 20 69zM499 173q0 80 -67 119q-56 32 -140 32q-61 0 -86 -5v-271q55 -13 111 -13q76 0 123 31q59 38 59 107z" />
<glyph unicode="C" horiz-adv-x="667" d="M617 165l15 -10q-96 -170 -275 -170q-163 0 -253 122q-68 92 -68 214q0 97 42 178q43 84 125 133q78 45 170 45q70 0 142 -35q22 -11 28 -11q31 0 41 46h18l15 -225h-15q-58 190 -221 190q-144 0 -203 -140q-32 -75 -32 -182q0 -186 117 -257q59 -35 132 -35q76 0 128 37 q43 30 94 100z" />
<glyph unicode="D" horiz-adv-x="722" d="M684 334q0 -162 -105 -251q-101 -83 -267 -83h-295v18h25q40 0 60 27q10 16 10 72v428q0 62 -13 78q-19 21 -57 21h-25v18h270q127 0 197 -24q98 -32 151 -118q49 -79 49 -186zM573 330q0 130 -69 209q-71 86 -198 86q-42 0 -100 -14v-563q64 -14 104 -14q125 0 195 88 q68 82 68 208z" />
<glyph unicode="E" horiz-adv-x="611" d="M568 166h20l-57 -166h-510v18h23q60 0 69 50q2 14 2 49v430q0 63 -12 78q-18 19 -59 19h-23v18h510l7 -145h-19q-7 42 -17 60q-13 29 -43 42q-17 7 -68 7h-182v-262h145q56 0 76 17q26 23 28 79h19v-230h-19q-6 50 -13 62q-19 37 -91 37h-145v-219v-37q3 -24 18 -31 q11 -6 37 -6h112q47 0 70 5q63 15 122 125z" />
<glyph unicode="F" horiz-adv-x="556" d="M509 662l6 -145h-17q-23 80 -71 99q-23 10 -76 10h-146v-260h120q45 0 65 23q16 19 22 68h18v-225h-18q-2 65 -37 84q-17 9 -50 9h-120v-208q0 -42 1 -49q4 -25 23.5 -37.5t45.5 -12.5h25v-18h-284v18h24q41 0 59 24q12 15 12 75v428q0 51 -7 66q-14 33 -64 33h-24v18 h493z" />
<glyph unicode="G" horiz-adv-x="722" d="M708 361v-18h-12q-38 0 -52 -26q-10 -16 -10 -71v-203q-109 -58 -233 -58q-193 0 -291 123q-75 92 -75 213q0 87 42 167q99 189 309 189q65 0 149 -31q28 -11 37 -11q21 0 24 42h18l17 -209h-17q-58 175 -219 175q-122 0 -188 -93q-61 -82 -61 -208q0 -88 33 -161 q34 -85 101 -126q59 -37 122 -37q73 0 137 37v191q0 38 -3 50q-7 30 -32 40q-15 7 -52 7v18h256z" />
<glyph unicode="H" horiz-adv-x="722" d="M702 18v-18h-285v18h24q39 0 59 24q13 16 13 75v202h-307v-202q0 -48 5 -66q13 -33 65 -33h25v-18h-284v18h24q41 0 59 24q12 15 12 75v427q0 40 -3 49q-5 26 -24.5 38.5t-43.5 12.5h-24v18h284v-18h-25q-60 0 -68 -50q-2 -16 -2 -50v-189h307v189q0 50 -6 67 q-13 33 -66 33h-24v18h285v-18h-24q-59 0 -70 -50q-2 -14 -2 -50v-427q0 -36 2 -48q10 -51 70 -51h24z" />
<glyph unicode="I" horiz-adv-x="333" d="M309 18v-18h-284v18h23q40 0 60 24q12 15 12 75v428q0 35 -2 49q-10 50 -70 50h-23v18h284v-18h-24q-41 0 -59 -24q-13 -16 -13 -75v-428q0 -51 7 -66q14 -33 65 -33h24z" />
<glyph unicode="J" horiz-adv-x="389" d="M383 662v-18h-24q-39 0 -59 -24q-11 -16 -11 -75v-324q0 -140 -73 -201q-41 -35 -97 -35q-37 0 -66 18q-32 21 -32 57q0 51 49 51q22 0 39 -23q7 -10 21 -42q11 -26 29 -26q36 0 36 73v452q0 51 -7 66q-14 33 -64 33h-24v18h283z" />
<glyph unicode="K" horiz-adv-x="722" d="M729 18v-18h-313v18q53 0 53 31q0 20 -35 55l-229 227v-214q0 -48 5 -66q15 -33 65 -33h24v-18h-282v18h23q40 0 60 24q11 16 11 75v428q0 37 -2 49q-10 50 -69 50h-23v18h282v-18h-24q-59 0 -68 -50q-2 -16 -2 -49v-203l66 62q145 133 176 178q12 20 12 34q0 28 -43 28 h-17v18h245v-18q-43 -2 -82 -26q-27 -17 -63 -50l-100 -100l-100 -101l243 -242q103 -101 187 -107z" />
<glyph unicode="L" horiz-adv-x="611" d="M573 183l15 -3l-55 -180h-513v18h24q42 0 60 27q11 17 11 73v427q0 62 -13 78q-20 21 -58 21h-24v18h299v-18h-4q-81 0 -99 -36q-8 -16 -8 -74v-416q0 -40 6 -53q11 -20 46 -23h98q62 0 90 6q75 18 125 135z" />
<glyph unicode="M" horiz-adv-x="889" d="M868 18v-18h-282v18h23q44 0 60 25q12 17 12 72v442l-256 -557h-16l-256 557v-442q0 -60 14 -76q17 -21 57 -21h23v-18h-230v18h23q42 0 60 25q9 17 9 72v432q0 43 -8 64q-18 33 -84 33v18h187l239 -518l238 518h187v-18h-23q-42 0 -60 -25q-12 -17 -12 -72v-432 q0 -61 15 -76q18 -21 57 -21h23z" />
<glyph unicode="N" horiz-adv-x="722" d="M708 662v-18h-22q-43 0 -61 -25q-11 -17 -11 -72v-558h-17l-437 533v-407q0 -63 13 -76q19 -21 57 -21h24v-18h-231v18h23q44 0 60 25q11 17 11 72v460q-26 31 -38 40q-17 14 -49 25q-12 4 -43 4v18h180l404 -496v381q0 61 -13 77q-20 20 -58 20h-21v18h229z" />
<glyph unicode="O" horiz-adv-x="722" d="M684 335q0 -145 -90 -246q-95 -104 -236 -104q-148 0 -236 103q-87 98 -87 245q0 157 108 258q94 86 223 86q139 0 230 -103q88 -98 88 -239zM572 322q0 131 -41 213q-56 107 -176 107q-111 0 -166 -103q-43 -79 -43 -204q0 -163 70 -249q52 -66 140 -66q116 0 172 98 q44 79 44 204z" />
<glyph unicode="P" horiz-adv-x="556" d="M521 479q0 -89 -60 -137q-53 -46 -146 -46q-43 0 -110 14v-193q0 -61 14 -77q19 -22 55 -22h26v-18h-283v18h25q40 0 60 27q9 15 9 72v428q0 64 -13 78q-20 21 -56 21h-25v18h242q79 0 124 -13q63 -18 103 -67q35 -44 35 -103zM410 469q0 97 -68 135q-31 19 -73 19 q-27 0 -64 -10v-275q50 -10 80 -10q57 0 91 43q34 40 34 98z" />
<glyph unicode="Q" horiz-adv-x="722" d="M684 331q0 -121 -66 -212q-64 -91 -179 -126q95 -161 241 -173v-16q-147 6 -289 95q-66 42 -120 94q-68 28 -110 60q-126 97 -126 280q0 144 92 244q93 100 237 100q140 0 232 -104q88 -100 88 -242zM572 318q0 222 -111 292q-43 30 -103 30q-114 0 -170 -102 q-42 -80 -42 -205q0 -126 43 -209q57 -106 169 -106q114 0 170 98q44 79 44 202z" />
<glyph unicode="R" horiz-adv-x="667" d="M676 18v-18h-177l-225 310q-16 -1 -41 -1q-17 0 -27 1v-193q0 -63 13 -77q19 -22 55 -22h27v-18h-284v18h25q40 0 60 27q10 16 10 72v428q0 62 -13 78q-19 21 -57 21h-25v18h241q90 0 130 -9q65 -14 104 -54q42 -43 42 -107q0 -134 -163 -170l136 -190q40 -55 71 -79 q38 -29 98 -35zM424 485q0 64 -39 102t-103 38q-30 0 -76 -9v-276h13h13q79 0 131 32q61 37 61 113z" />
<glyph unicode="S" horiz-adv-x="556" d="M502 169q0 -83 -63 -136q-60 -48 -145 -48q-31 0 -54 4q-21 5 -64 19q-44 14 -59 14q-26 0 -30 -37h-18v227h18q10 -62 29 -96q23 -45 71 -70q44 -23 97 -23q52 0 90 27q42 30 42 81q0 54 -56 96q-38 28 -112 68q-81 45 -112 70q-73 58 -73 138q0 77 59 127q56 47 134 47 q52 0 112 -26q28 -12 39 -12q25 0 33 38h18v-229h-18q-16 123 -96 167q-43 23 -87 23q-45 0 -80 -27q-37 -28 -37 -74q0 -31 21 -56q31 -35 144 -97q68 -37 101 -57q96 -66 96 -158z" />
<glyph unicode="T" horiz-adv-x="611" d="M579 662l7 -155h-19q-5 41 -14 58q-30 56 -107 56h-93v-506q0 -63 13 -76q18 -21 57 -21h23v-18h-280v18h23q42 0 60 25q10 16 10 72v506h-79q-48 0 -66 -7q-59 -21 -65 -107h-19l8 155h541z" />
<glyph unicode="U" horiz-adv-x="722" d="M711 662v-18h-24q-39 0 -61 -33q-10 -14 -10 -70v-269q0 -91 -14 -139q-47 -149 -241 -149q-193 0 -244 139q-15 43 -15 163v259q0 51 -11 71q-16 28 -61 28h-25v18h287v-18h-26q-41 0 -58 -26q-13 -17 -13 -73v-289q0 -116 33 -166q43 -64 139 -64q60 0 109 25 q57 27 78 76q18 43 18 150v268q0 62 -13 78q-19 21 -57 21h-25v18h234z" />
<glyph unicode="V" horiz-adv-x="722" d="M710 662v-18q-37 -6 -53 -22q-27 -24 -46 -74l-231 -563h-18l-248 571q-20 45 -27 53q-25 30 -78 35v18h270v-18q-73 -7 -73 -44q0 -23 23 -77l168 -388l156 384q23 57 23 78q0 35 -62 46l-8 1v18h204z" />
<glyph unicode="W" horiz-adv-x="944" d="M936 662v-18q-47 0 -73 -44q-6 -10 -30 -81l-186 -534h-19l-150 423l-150 -423h-18l-197 550q-24 64 -29 72q-18 37 -71 37v18h245v-18h-11q-54 0 -54 -40q0 -19 22 -79l130 -371l110 316l-35 100q-19 57 -63 71q-9 3 -29 3v18h256v-18h-16q-53 0 -53 -43q0 -27 22 -87 l127 -360l126 365q22 60 22 84q0 41 -74 41v18h198z" />
<glyph unicode="X" horiz-adv-x="722" d="M710 18v-18h-284v18l33 3q18 5 26 17q7 7 7 18q0 10 -5 22q-1 5 -27 43l-112 170l-139 -178q-30 -39 -30 -57q0 -35 63 -38v-18h-235v18q26 3 43 10q60 25 120 100l157 198l-131 191q-44 63 -72 87q-46 39 -103 40v18h306v-18q-68 -2 -68 -38q0 -17 23 -52l102 -152 l117 149q30 37 30 56q0 24 -24 33q-9 4 -47 4v18h235v-18q-29 -2 -45 -9q-48 -19 -110 -100l-132 -168l142 -212q47 -70 65 -90q44 -44 95 -47z" />
<glyph unicode="Y" horiz-adv-x="722" d="M708 662v-18h-13q-40 0 -82 -43q-21 -24 -49 -69l-160 -251v-166q0 -60 14 -76q20 -21 59 -21h21v-18h-281v18h23q42 0 60 25q11 17 11 72v156l-182 278q-34 50 -38 54q-16 18 -53 36q-12 5 -29 5v18h283v-18h-14q-24 0 -41 -10q-21 -10 -21 -33q0 -17 30 -63l138 -214 l130 204q29 47 29 69q0 29 -27 41q-14 6 -39 6v18h231z" />
<glyph unicode="Z" horiz-adv-x="611" d="M567 178l16 -3l-31 -175h-539v18l424 605h-211q-88 0 -113 -45q-13 -24 -23 -81h-18l12 165h491l-435 -622h272q68 0 104 36q27 28 51 102z" />
<glyph unicode="[" horiz-adv-x="286" d="M202 -81h-186v708h186v-109h-74v-489h74v-110z" />
<glyph unicode="\" horiz-adv-x="276" d="M78 583l186 -583h-71l-193 583h78z" />
<glyph unicode="]" horiz-adv-x="286" d="M270 -81h-186v110h74v489h-74v109h186v-708z" />
<glyph unicode="^" horiz-adv-x="385" d="M220 555l155 -342h-58l-123 277l-123 -277h-58l154 342h53z" />
<glyph unicode="_" horiz-adv-x="504" d="M504 -71v-55h-504v55h504z" />
<glyph unicode="`" horiz-adv-x="333" d="M201 510l-143 169h109l51 -169h-17z" />
<glyph unicode="a" horiz-adv-x="444" d="M441 92v-28q-54 -73 -105 -73q-50 0 -51 73q-72 -55 -87 -61q-26 -12 -56 -12q-48 0 -77 32t-29 83q0 70 84 119q51 31 165 71v18q0 53 -14 81q-21 36 -69 36q-26 0 -46 -15q-23 -16 -22 -40l1 -28q2 -47 -41 -47q-41 0 -41 47q0 56 57 87q46 25 106 25q112 0 139 -67 q10 -20 10 -86v-152q0 -88 10 -97q8 -5 14 -5q7 0 13 3q10 6 39 36zM285 96v171q-72 -28 -97 -42q-70 -40 -70 -96q0 -33 19.5 -57.5t49.5 -24.5q37 0 98 49z" />
<glyph unicode="b" horiz-adv-x="500" d="M465 241q0 -119 -79 -192q-68 -63 -151 -63q-78 0 -162 57v463q0 106 -15 118q-8 6 -19 6q-15 0 -35 -7l-6 17l134 54h22v-324q64 90 140 90q82 0 130 -71q41 -62 41 -148zM381 213q0 69 -28 118q-35 60 -98 60q-48 0 -101 -52v-268q49 -49 106 -49q61 0 94 69 q27 54 27 122z" />
<glyph unicode="c" horiz-adv-x="444" d="M396 177l15 -7q-17 -79 -61 -127q-52 -57 -126 -57q-91 0 -143 76q-47 68 -47 161q0 99 58 167q58 70 156 70q52 0 97 -27q52 -31 52 -80q0 -41 -44 -41q-29 0 -43 18q-6 8 -12 40q-6 31 -21.5 44.5t-46.5 13.5q-58 0 -90 -54q-27 -45 -27 -109q0 -75 33 -134 q41 -68 113 -68q46 0 86 32q26 22 51 82z" />
<glyph unicode="d" horiz-adv-x="500" d="M497 59l5 -17l-132 -56h-23v64q-61 -64 -131 -64q-84 0 -136 70q-47 64 -47 149q0 100 58 174q63 82 159 82q59 0 97 -38v83q0 106 -15 118q-8 6 -20 6q-13 0 -33 -7l-8 17l135 54h22v-517q0 -107 15 -120q7 -7 19 -7t35 9zM347 84v231q0 45 -30 80q-29 36 -73 36 q-62 0 -95 -67q-26 -54 -26 -120q0 -77 31 -133q38 -71 107 -71q45 0 86 44z" />
<glyph unicode="e" horiz-adv-x="444" d="M399 173l17 -10q-12 -73 -61 -123q-53 -54 -124 -54q-91 0 -146 72q-48 64 -48 160q0 102 50 169q57 74 157 74q79 0 125 -52q47 -52 47 -130h-311q0 -85 40 -144q43 -69 125 -69q90 0 129 107zM105 307h207q-1 43 -9 61q-25 58 -87 58q-49 0 -77 -37q-28 -32 -34 -82z " />
<glyph unicode="f" horiz-adv-x="333" d="M435 611q0 -15 -13 -28t-27 -13q-21 0 -56 44q-33 44 -67 44q-47 0 -60 -49q-6 -25 -6 -130v-32h115v-35h-115v-294q0 -62 14 -79q18 -21 48 -21h41v-18h-267v18h20q43 0 58 36q5 18 5 64v294h-86v35h86v30q0 133 87 188q43 28 100 28q50 0 94 -33q29 -23 29 -49z" />
<glyph unicode="g" horiz-adv-x="500" d="M482 408q0 -17 -5 -20t-27 -3h-58q27 -35 27 -90q0 -71 -54 -113q-50 -38 -122 -38q-35 0 -68 10q-37 -31 -37 -56q0 -22 40 -28q13 -1 68 -3q106 -3 130 -7q45 -6 72.5 -32.5t27.5 -68.5q0 -55 -52 -104q-77 -71 -198 -71q-96 0 -160 43q-36 24 -36 50q0 25 39 74l7 7 l18 20l25 26q-46 28 -46 54q0 40 78 105q-85 42 -85 135q0 72 54 119q50 43 124 43q65 0 111 -31h95q21 0 24 -1q8 -5 8 -20zM333 283q0 57 -20 100q-25 54 -77 54q-44 0 -67 -38q-18 -31 -18 -79q0 -57 20 -99q26 -53 78 -53q84 0 84 115zM440 -60q0 33 -50 44q-20 4 -75 5 q-104 3 -169 11q-46 -49 -46 -86q0 -23 28 -41q50 -30 141 -30q62 0 107 19q64 25 64 78z" />
<glyph unicode="h" horiz-adv-x="500" d="M494 18v-18h-220v18h10q51 0 61 37q1 4 1 46v158q0 52 -2 70q-10 72 -70 72q-51 0 -111 -64v-236q0 -38 1 -43q7 -40 71 -40v-18h-222v18q44 0 57 19q12 17 12 64v405q0 106 -15 118q-7 6 -21 6q-12 0 -33 -7l-7 17l134 54h23v-327q41 45 66 63q41 30 83 30q80 0 106 -86 q9 -32 9 -115v-158q0 -43 7 -58q10 -25 60 -25z" />
<glyph unicode="i" horiz-adv-x="278" d="M194 645q0 -21 -14 -35.5t-35 -14.5t-35.5 14.5t-14.5 35.5t14.5 35t35.5 14t35 -14t14 -35zM253 18v-18h-217v18q50 0 62 27q6 13 6 56v172q0 76 -4 95q-6 28 -31 28q-12 0 -33 -8l-7 18l135 54h22v-359q0 -63 24 -77q12 -6 43 -6z" />
<glyph unicode="j" horiz-adv-x="278" d="M195 645q0 -22 -14 -36t-35 -14t-36 14.5t-15 35.5t14.5 35.5t36.5 14.5q21 0 35 -14.5t14 -35.5zM187 460v-450q0 -97 -38 -156q-45 -70 -138 -70q-31 0 -54 10q-34 13 -34 39q0 17 12.5 29.5t27.5 12.5q13 0 27 -6q11 -6 34 -27q22 -19 38 -19q30 0 40 39q4 19 4 92 v318q0 74 -3 95q-8 29 -32 29q-13 0 -32 -8l-8 18l136 54h20z" />
<glyph unicode="k" horiz-adv-x="500" d="M506 18v-18h-217v18q31 1 31 20q0 11 -19 36l-137 175v-148q0 -65 23 -77q11 -6 49 -6v-18h-228v18q55 0 67 24q8 18 8 56v407q0 107 -15 120q-8 6 -21 6q-9 0 -30 -8l-9 17l133 54h23v-445l113 104q36 33 42 42q4 5 4 12q0 24 -34 25v15h194v-15q-70 -1 -125 -53 l-115 -106l115 -145q46 -58 64 -76q24 -22 41 -30q12 -4 43 -4z" />
<glyph unicode="l" horiz-adv-x="278" d="M257 18v-18h-219v18q48 0 60 27q6 15 6 56v406q0 105 -14 117q-8 6 -20 6q-14 0 -32 -7l-8 17l133 54h22v-593q0 -63 25 -76q13 -7 47 -7z" />
<glyph unicode="m" horiz-adv-x="778" d="M773 18v-18h-220v18h9q50 0 61 36q2 10 2 47v192q0 56 -13 78q-19 31 -61 31q-51 0 -115 -61l-1 -6l1 -21v-213q0 -38 1 -43q7 -40 71 -40v-18h-226v18q60 0 71 35q2 10 2 48v192q0 110 -76 110q-26 0 -52 -14q-41 -23 -63 -48v-240q0 -63 24 -77q14 -6 49 -6v-18h-221 v18q49 0 61 27q6 15 6 56v171q0 76 -4 95q-6 29 -31 29q-11 0 -32 -8l-8 18l135 54h21v-95q46 47 58 56q46 39 97 39q92 0 113 -95q42 48 68 66q41 29 88 29q77 0 107 -78q11 -28 11 -89v-192q0 -43 6 -58q10 -25 61 -25z" />
<glyph unicode="n" horiz-adv-x="500" d="M496 18v-18h-222v18h10q51 0 61 37q2 10 2 46v183q0 116 -70 116q-58 0 -115 -63v-236q0 -44 5 -56q13 -27 67 -27v-18h-221v18h10q38 0 50 24q8 18 8 59v166q0 110 -15 122q-7 7 -20 7q-12 0 -33 -8l-7 18l135 54h21v-94q78 94 150 94q75 0 105 -78q10 -27 10 -90v-191 q0 -64 25 -77q12 -6 44 -6z" />
<glyph unicode="o" horiz-adv-x="500" d="M465 232q0 -64 -28 -121q-60 -125 -192 -125q-101 0 -162 81q-49 67 -49 152q0 63 28 120q62 121 188 121q101 0 163 -77q52 -64 52 -151zM375 194q0 120 -52 188q-35 47 -88 47q-61 0 -89 -58q-21 -43 -21 -111q0 -82 29 -151q39 -88 112 -88q109 0 109 173z" />
<glyph unicode="p" horiz-adv-x="500" d="M466 240q0 -116 -67 -192q-54 -62 -137 -62q-64 0 -107 40v-136q0 -34 2 -44q7 -42 74 -42v-18h-234v18h12q42 0 56 23q9 17 9 66v422q0 63 -16 73q-8 6 -23 6q-13 0 -30 -7l-5 16l137 55h18v-104q63 106 143 106q82 0 128 -72q40 -62 40 -148zM379 194q0 102 -45 158 q-32 38 -74 38q-23 0 -47 -12q-18 -10 -58 -53v-167q0 -53 5 -71q8 -32 36 -51.5t64 -19.5q63 0 94 61q25 46 25 117z" />
<glyph unicode="q" horiz-adv-x="500" d="M500 -196v-18h-226v18h10q46 0 57 27q6 13 6 54v193q-77 -92 -147 -92q-80 0 -126 72q-41 64 -41 146q0 106 61 179q65 77 169 77q56 0 93 -31q26 13 55 31h16v-575q0 -27 2 -41q4 -22 23 -33q11 -7 48 -7zM347 108v210q0 51 -25.5 79.5t-73.5 28.5q-70 0 -105 -62 q-28 -49 -28 -125q0 -73 30 -124q37 -60 105 -60q55 0 97 53z" />
<glyph unicode="r" horiz-adv-x="333" d="M339 406q0 -19 -12 -32t-31 -13q-13 0 -38 17t-31 17q-28 0 -65 -76v-215q0 -47 17 -66.5t61 -19.5v-18h-229v18q57 0 68 35q3 9 3 48v173v2v3v2v2v2v3v2v2v3v2v2v3v2v2v3v2v2v3v2v3v2v10q-3 63 -37 63q-13 0 -34 -8l-5 18l136 54h20v-100q55 100 115 100 q25 0 43.5 -15.5t18.5 -38.5z" />
<glyph unicode="s" horiz-adv-x="389" d="M354 122q0 -60 -45 -98q-44 -38 -104 -38q-43 0 -94 15q-18 5 -27 5q-11 0 -17 -13h-16v160h16q12 -59 45 -96q38 -42 94 -42q31 0 53.5 19t22.5 49q0 39 -42 71q-19 16 -80 45q-52 25 -77 49q-34 33 -34 83q0 57 39 93t97 36q25 0 64 -11q22 -7 33 -7q13 0 22 18h16 v-152h-16q-15 58 -38 87q-30 37 -83 37q-29 0 -51 -15q-26 -17 -26 -43q0 -52 78 -90l71 -34q99 -50 99 -128z" />
<glyph unicode="t" horiz-adv-x="278" d="M260 89h19q-35 -96 -112 -96q-55 0 -76 48q-10 21 -10 71v301h-71v16q60 24 105 97q9 13 31 68h15v-147h105v-34h-105v-290q0 -74 45 -74q38 0 54 40z" />
<glyph unicode="u" horiz-adv-x="500" d="M492 59l7 -17l-134 -56h-22v95q-44 -47 -67 -64q-40 -31 -85 -31q-79 0 -104 78q-10 33 -10 97v199q0 50 -27 63q-11 6 -40 6h-9v18h157v-299q0 -102 74 -102q48 0 111 64v253q0 40 -17 54q-13 10 -55 12v18h152v-271q0 -106 16 -119q7 -7 19 -7q14 0 34 9z" />
<glyph unicode="v" horiz-adv-x="500" d="M491 447v-18q-25 -1 -35 -10q-17 -14 -31 -49l-159 -384h-20l-160 378q-18 44 -45 57q-5 3 -33 8v18h211v-18h-14q-39 0 -39 -34q0 -17 10 -41l104 -247l105 257q11 28 11 41q0 8 -4 12q-9 12 -47 12v18h146z" />
<glyph unicode="w" horiz-adv-x="722" d="M713 447v-18q-43 -6 -63 -57l-149 -386h-20l-112 286l-130 -286h-18l-144 376q-12 33 -26.5 46.5t-44.5 20.5v18h188v-18q-42 -3 -42 -30q0 -13 8 -37l96 -257l96 209l-25 66q-10 28 -31 41q-9 6 -40 8v18h213v-18q-60 -1 -60 -37q0 -12 4 -20l102 -257l94 247 q10 24 10 42q0 23 -47 25v18h141z" />
<glyph unicode="x" horiz-adv-x="500" d="M488 18v-18h-211v18q43 0 43 27q0 11 -31 57l-65 96l-72 -96q-33 -44 -33 -53q0 -29 44 -31v-18h-146v18q18 2 30 12q19 14 63 72l94 125l-85 123q-30 42 -43 55q-27 24 -63 24v18h211v-18q-37 0 -37 -25q0 -8 34 -60l30 -51l38 51q35 50 35 61q0 24 -35 24v18h150v-18 q-24 -2 -40 -13q-24 -16 -66 -72l-62 -82l113 -160q32 -46 42 -57q25 -25 62 -27z" />
<glyph unicode="y" horiz-adv-x="500" d="M494 447v-18q-31 -3 -49 -30q-5 -7 -17 -37l-182 -446q-22 -54 -58 -89q-43 -43 -93 -43q-27 0 -46.5 15.5t-19.5 39.5q0 45 50 45q17 0 44 -10q21 -8 24 -8q37 0 67 74l32 78l-161 337q-22 46 -43 61q-9 7 -36 13v18h208v-18h-10q-44 0 -44 -33q0 -20 16 -53l109 -225 l100 247q9 19 9 39q0 16 -16 22q-8 3 -29 3v18h145z" />
<glyph unicode="z" horiz-adv-x="444" d="M428 447v-18l-301 -396h164q42 0 57 4q28 7 42 34q8 15 12 66h17l-4 -137h-395v18l296 395h-147q-33 0 -47 -2q-48 -10 -54 -88h-19l4 124h375z" />
<glyph unicode="{" horiz-adv-x="355" d="M271 -88h-32q-57 0 -95 18.5t-49 71.5q-7 35 -7 101v11v12q0 4 -0.5 13.5t-1 14.5t-2 13.5t-3.5 14t-5 11.5t-7 10t-9 7q-9 5 -44 7v115q23 1 33 3t20 12t15 30q4 15 4 83q0 33 2 54t9 46.5t24 42.5t44 25q23 8 72 8h32v-116q-13 1 -23 1q-37 0 -42 -11q-3 -6 -4 -34.5 t-1.5 -62.5t-2.5 -46q-9 -61 -47 -92q45 -39 49 -126q0 -96 6 -108q7 -12 65 -12v-117z" />
<glyph unicode="|" horiz-adv-x="242" d="M158 -104h-74v750h74v-750z" />
<glyph unicode="}" horiz-adv-x="355" d="M339 217q-37 -3 -44 -7q-29 -16 -29 -107v-10q0 -39 -1.5 -58.5t-8.5 -46.5t-25 -43t-48 -26q-21 -7 -67 -7h-32v117q57 0 64 12q3 5 6 76.5t10 95.5q14 39 40 62q-38 31 -47 92q-2 12 -2.5 46t-1.5 62.5t-4 34.5t-19 8q-12 2 -23 2h-9h-14v116h32q58 0 95 -18t49 -71 q6 -30 6 -87q0 -98 22 -116q11 -10 51 -12v-115z" />
<glyph unicode="~" horiz-adv-x="317" d="M287 260q-39 -60 -82 -60q-5 0 -11 1q-17 3 -44 26t-44 26q-3 1 -6 1q-20 0 -37 -28l-33 18q33 62 78 62q6 0 12 -1q18 -4 35 -17q2 -1 14.5 -11.5t21.5 -16.5t15 -7h5q18 0 42 28z" />
<glyph unicode="&#xa1;" horiz-adv-x="344" d="M225 19q1 -13 -15 -23.5t-37 -10.5q-22 0 -38 10.5t-15 25.5l20 412q0 16 14 16h38q5 0 9 -5t5 -10zM228 579q0 -23 -16.5 -39t-39.5 -16t-39 16t-16 39q0 25 15.5 41t39.5 16q23 0 39.5 -16.5t16.5 -40.5z" />
<glyph unicode="&#xa2;" horiz-adv-x="544" d="M261 31v382q-107 -14 -107 -191t107 -191zM453 104q-38 -104 -149 -115v-92q0 -8 -6 -14.5t-15 -6.5t-15.5 6.5t-6.5 14.5v91q-93 7 -144.5 72t-51.5 162q0 98 51.5 162.5t144.5 70.5v89q0 9 6 15.5t15 6.5q22 0 22 -22v-89q62 -4 127 -32q5 -2 10.5 -8.5t5.5 -13.5v-83 q0 -5 -4.5 -10t-10.5 -5h-16q-13 0 -17 15q-18 85 -95 95v-382q69 10 92 86q1 5 7 10.5t14 5.5h16q14 0 19 -10q2 -6 2 -12q0 -3 -1 -7z" />
<glyph unicode="&#xa3;" horiz-adv-x="398" d="M391 57q0 -5 -3 -13l-15 -34q-4 -10 -15 -10h-317q-8 0 -10.5 2.5t-2.5 11.5v38q0 8 2.5 10.5t10.5 2.5h51q15 70 15 110q0 16 -2 40h-63q-9 0 -11.5 2.5t-2.5 11.5v38q0 8 2.5 10.5t11.5 2.5h50q-9 36 -9 72q0 68 46 110.5t134 42.5q45 0 85.5 -15t40.5 -30l-3 -9 l-19 -38q-4 -6 -8 -6q-3 0 -14.5 7.5t-34 15.5t-52.5 8q-56 0 -77.5 -20t-21.5 -63q0 -41 8 -75h113q9 0 11.5 -2.5t2.5 -10.5v-38q0 -9 -3 -11.5t-11 -2.5h-100q3 -21 3 -42q0 -24 -2 -42.5t-7 -42.5l-6 -23h210q13 0 13 -8z" />
<glyph unicode="&#xa5;" horiz-adv-x="544" d="M537 600q0 -9 -7 -15t-16 -6h-27l-117 -207h79q10 0 17 -6t7 -15q0 -10 -7 -16.5t-16 -6.5h-105h-1l-31 -53v-33h136q11 0 17.5 -6t6.5 -16q0 -9 -7 -15.5t-16 -6.5h-137v-153h47q9 0 16 -6.5t7 -15.5t-7 -16t-16 -7h-178q-9 0 -15.5 6t-6.5 16q0 9 7 16t15 7h48v153 h-136q-9 0 -16 6t-7 15t7 16t16 7h136v27l-34 59h-102q-9 0 -16 6.5t-7 15.5t7 15.5t16 6.5h76l-119 207h-25q-10 0 -17 6t-7 15q0 10 7 16.5t16 6.5h167q9 0 16 -6.5t7 -15.5t-7 -15.5t-16 -6.5h-41l143 -252l142 252h-38q-9 0 -16 6.5t-7 15.5t7 15.5t16 6.5h116 q9 0 16 -7t7 -16z" />
<glyph unicode="&#xa7;" horiz-adv-x="427" d="M320 247q0 12 -5.5 24t-12.5 22t-20 21l-24 20q-9 7 -26.5 17t-25.5 15l-26 13q-18 9 -21 11q-53 -32 -53 -76q0 -53 166 -147q48 33 48 80zM389 260q0 -43 -24 -68t-68 -43q64 -39 64 -110q0 -61 -47 -91t-111 -30q-63 0 -118 17q-19 9 -19 21v57q0 5 4.5 10.5t9.5 5.5 h12q12 0 15 -20q13 -47 89 -47q40 0 67 19t27 57q0 28 -26 52t-63 44l-74 42q-37 22 -63 54t-26 70q0 82 95 108q-67 40 -67 106q0 60 45 90.5t107 30.5q60 0 113 -18q15 -7 15 -21v-54q0 -5 -4.5 -10t-9.5 -5h-10q-12 0 -16 16q-6 24 -28 36.5t-51 12.5q-39 0 -64.5 -18.5 t-25.5 -56.5q0 -24 26 -47t63 -43t74 -42.5t63 -54.5t26 -70z" />
<glyph unicode="&#xa8;" horiz-adv-x="427" d="M180 606q0 -22 -13.5 -35t-35.5 -13q-20 0 -34 14t-14 34t14 34.5t34 14.5q21 0 35 -14t14 -35zM345 606q0 -20 -14 -34t-35 -14q-22 0 -35.5 13t-13.5 35q0 21 14.5 35t34.5 14t34.5 -14.5t14.5 -34.5z" />
<glyph unicode="&#xa9;" horiz-adv-x="556" d="M384 130q-43 -39 -95 -39q-55 0 -95.5 38.5t-40.5 95.5q0 56 41 95t95 39q52 0 95 -39l-26 -33q-34 31 -69 31t-64 -25.5t-29 -67.5q0 -43 28.5 -68t61.5 -25q39 0 72 30zM478 221q0 83 -59 141.5t-141 58.5t-141 -58.5t-59 -141.5t59 -141.5t141 -58.5t141 58.5 t59 141.5zM513 221q0 -97 -69 -166t-166 -69q-98 0 -166.5 69t-68.5 166t69 166t166 69t166 -69t69 -166z" />
<glyph unicode="&#xab;" horiz-adv-x="523" d="M267 90q0 -14 -15 -14q-9 0 -17 8l-162 143q-7 6 -7 15v17q0 10 7 16l162 143q10 8 17 8q15 0 15 -15q0 -9 -5 -16l-124 -144l124 -145q5 -6 5 -16zM448 90q0 -14 -15 -14q-9 0 -17 8l-161 143q-8 6 -8 15v17q0 4 2 8t4 6l2 2l161 143q10 8 17 8q15 0 15 -15q0 -8 -4 -16 l-125 -144l125 -145q4 -7 4 -16z" />
<glyph unicode="&#xad;" horiz-adv-x="434" d="M392 336l-39 -107h-311l40 107h310z" />
<glyph unicode="&#xae;" horiz-adv-x="855" d="M507 393q0 65 -73 65h-73v-131h73q73 0 73 66zM619 158q0 -5 -4 -8.5t-9 -3.5h-52q-10 0 -16 8l-53 99q-10 19 -16.5 27.5t-19.5 15t-33 6.5h-55v-132h33q13 0 13 -12q0 -5 -4 -8.5t-9 -3.5h-111q-14 0 -14 12t14 12h27v288h-27q-14 0 -14 12q0 5 4.5 9t9.5 4h168 q51 0 82 -22.5t31 -67.5q0 -70 -85 -80q33 -9 52 -43l54 -100h21q13 0 13 -12zM694 310q0 111 -77.5 189t-189.5 78q-110 0 -188 -78.5t-78 -188.5t78 -188.5t188 -78.5q112 0 189.5 77.5t77.5 189.5zM737 310q0 -128 -91 -219t-219 -91t-218.5 91t-90.5 219t90.5 219 t218.5 91q129 0 219.5 -91t90.5 -219z" />
<glyph unicode="&#xaf;" horiz-adv-x="1000" />
<glyph unicode="&#xb0;" horiz-adv-x="348" d="M256 395q0 34 -24 58t-58 24t-58 -24t-24 -58t24 -57.5t58 -23.5t58 23.5t24 57.5zM313 395q0 -57 -41 -97.5t-98 -40.5t-98 40.5t-41 97.5q0 58 41 98.5t98 40.5t98 -40.5t41 -98.5z" />
<glyph unicode="&#xb4;" horiz-adv-x="427" d="M335 673q0 -10 -7 -18l-108 -119q-10 -10 -23 -10q-20 0 -20 15q0 9 13 25l75 108q7 9 19 9h33q18 0 18 -10z" />
<glyph unicode="&#xb6;" horiz-adv-x="544" d="M489 600q0 -9 -6.5 -15.5t-15.5 -6.5l-28 1l-1 -642q0 -20 -20 -20q-23 0 -23 21v641h-97l1 -641q0 -21 -22 -21q-23 0 -23 21v333q-84 6 -136 50t-52 126q0 84 56.5 130t141.5 46h202q23 0 23 -23z" />
<glyph unicode="&#xb7;" horiz-adv-x="272" d="M191 296q0 -23 -16.5 -39t-39.5 -16q-24 0 -40 15.5t-16 39.5q0 25 16 40.5t40 15.5q23 0 39.5 -16t16.5 -40z" />
<glyph unicode="&#xb8;" horiz-adv-x="427" d="M293 -94q0 -38 -29 -55t-71 -17q-73 0 -73 32q0 21 26 23q7 0 20.5 -1.5t18.5 -1.5q22 1 37 10q14 9 14 28q0 17 -14 37t-14 26q0 13 16 13q17 0 31 -15q38 -41 38 -79z" />
<glyph unicode="&#xbb;" horiz-adv-x="523" d="M276 242q0 -9 -7 -15l-162 -143q-8 -8 -17 -8q-15 0 -15 14q0 10 5 16l124 145l-124 144q-5 7 -5 16q0 15 15 15q7 0 17 -8l162 -143q7 -6 7 -16v-17zM458 242q0 -4 -2 -8t-4 -6l-2 -1l-161 -143q-8 -8 -17 -8q-16 0 -16 14q0 10 5 16l125 145l-125 144q-5 7 -5 16 q0 15 16 15q7 0 17 -8l161 -143q8 -6 8 -16v-17z" />
<glyph unicode="&#xbf;" horiz-adv-x="459" d="M417 41q0 -14 -14 -20q-84 -32 -147 -32q-83 0 -140.5 41.5t-57.5 123.5q0 158 186 197v90q0 5 4 11t11 6h22q6 0 10.5 -5t4.5 -10v-106q0 -7 -5.5 -13t-9.5 -7q-135 -42 -135 -164q0 -56 29 -89.5t85 -33.5q48 0 73.5 23.5t39.5 66.5q6 16 16 16h14q5 0 9.5 -5t4.5 -10 v-80zM325 579q0 -23 -16.5 -39t-39.5 -16t-39 16t-16 39q0 24 15.5 40.5t39.5 16.5q25 0 40.5 -16t15.5 -41z" />
<glyph unicode="&#x192;" horiz-adv-x="525" d="M560 694q0 -4 -3 -12l-274 -663q-2 -6 -11.5 -12.5t-16.5 -6.5h-34q-17 0 -26 15l-180 303q-5 8 -5 16q0 13 9.5 22t22.5 9q17 0 26 -16l100 -175l55 -130h26l35 129l216 532q8 20 27 20q13 0 23 -9t10 -22z" />
<glyph unicode="&#x2c6;" horiz-adv-x="427" d="M336 542q0 -15 -20 -15q-17 0 -24 9l-78 100l-78 -101q-7 -8 -24 -8q-20 0 -20 15q0 2 13 25l68 108q7 9 19 9h44q5 0 10 -2t7 -4l2 -3l68 -108q13 -23 13 -25z" />
<glyph unicode="&#x2c7;" horiz-adv-x="450" d="M345 697q0 -2 -13 -25l-68 -108q-6 -9 -19 -9h-43q-6 0 -10.5 2.5t-6.5 4.5l-2 2l-68 108q-14 20 -14 25q0 15 20 15q19 0 24 -8l78 -101l79 100q7 9 23 9q20 0 20 -15z" />
<glyph unicode="&#x2d8;" horiz-adv-x="450" d="M359 679q0 -37 -37 -67.5t-96 -30.5t-97 30.5t-38 67.5q0 29 22 29q15 0 22 -20q17 -49 90 -49t90 49q7 20 22 20q22 0 22 -29z" />
<glyph unicode="&#x2d9;" horiz-adv-x="450" d="M276 638q0 -22 -14 -36.5t-37 -14.5t-37 14.5t-14 36.5q0 21 15 36t36 15t36 -15t15 -36z" />
<glyph unicode="&#x2da;" horiz-adv-x="450" d="M292 670q0 28 -19.5 47t-47.5 19q-29 0 -48 -19t-19 -47t19 -47.5t48 -19.5t48 19.5t19 47.5zM345 670q0 -51 -34.5 -86t-85.5 -35t-85.5 35t-34.5 86t34.5 85.5t85.5 34.5t85.5 -34.5t34.5 -85.5z" />
<glyph unicode="&#x2db;" horiz-adv-x="450" d="M137 -94q0 38 38 79q14 15 31 15q16 0 16 -13q0 -6 -14 -26t-14 -37q0 -19 14 -28q15 -9 37 -10q5 0 18.5 1.5t20.5 1.5q26 -2 26 -23q0 -32 -73 -32q-42 0 -71 17t-29 55z" />
<glyph unicode="&#x2dc;" horiz-adv-x="427" d="M351 643q0 -36 -21.5 -66.5t-59.5 -30.5q-32 0 -64 32.5t-49 32.5q-32 0 -38 -47q-3 -18 -20 -18q-9 0 -15.5 6t-6.5 15q0 36 21 66.5t60 30.5q20 0 37 -10t27.5 -22.5t24 -22.5t25.5 -10q31 0 37 47q3 18 20 18q9 0 15.5 -6t6.5 -15z" />
<glyph unicode="&#x2dd;" horiz-adv-x="450" d="M238 673q0 -10 -7 -18l-108 -119q-10 -10 -23 -10q-20 0 -20 15q0 9 13 25l75 108q7 9 19 9h33q18 0 18 -10zM379 673q0 -10 -7 -18l-108 -119q-10 -10 -23 -10q-20 0 -20 15q0 9 13 25l75 108q7 9 19 9h33q18 0 18 -10z" />
<glyph unicode="&#x5b0;" d="M40 -237q0 -17 -12 -28.5t-28 -11.5t-28 11.5t-12 28.5t12 28.5t28 11.5t28 -11.5t12 -28.5zM40 -116q0 -16 -12 -28t-28 -12t-28 12t-12 28t12 28t28 12t28 -12t12 -28z" />
<glyph unicode="&#x5b1;" d="M-24 -237q0 -17 -12 -28.5t-28 -11.5t-28 11.5t-12 28.5t12 28.5t28 11.5t28 -11.5t12 -28.5zM-90 -116q0 -16 -12 -28t-28 -12t-28 12t-12 28t12 28t28 12t28 -12t12 -28zM42 -116q0 -16 -12 -28t-28 -12t-28 12t-12 28t12 28t28 12t28 -12t12 -28zM168 -237 q0 -17 -12 -28.5t-28 -11.5t-28 11.5t-12 28.5t12 28.5t28 11.5t28 -11.5t12 -28.5zM168 -116q0 -16 -12 -28t-28 -12t-28 12t-12 28t12 28t28 12t28 -12t12 -28z" />
<glyph unicode="&#x5b2;" d="M34 -122q0 -8 -2.5 -11t-11.5 -3h-160q-9 0 -11.5 3t-2.5 11v22q0 9 2.5 11.5t11.5 2.5h160q8 0 11 -2.5t3 -11.5v-22zM154 -237q0 -17 -12 -28.5t-28 -11.5t-28 11.5t-12 28.5t12 28.5t28 11.5t28 -11.5t12 -28.5zM154 -116q0 -16 -12 -28t-28 -12t-28 12t-12 28t12 28 t28 12t28 -12t12 -28z" />
<glyph unicode="&#x5b3;" d="M34 -122q0 -8 -2.5 -11t-11.5 -3h-58l5 -39v-81q0 -12 -13 -12h-28q-8 0 -10.5 2t-2.5 10v81l5 39h-58q-9 0 -11.5 3t-2.5 11v22q0 9 2.5 11.5t11.5 2.5h160q8 0 11 -2.5t3 -11.5v-22zM154 -237q0 -17 -12 -28.5t-28 -11.5t-28 11.5t-12 28.5t12 28.5t28 11.5t28 -11.5 t12 -28.5zM154 -116q0 -16 -12 -28t-28 -12t-28 12t-12 28t12 28t28 12t28 -12t12 -28z" />
<glyph unicode="&#x5b4;" d="M40 -116q0 -16 -12 -28t-28 -12t-28 12t-12 28t12 28t28 12t28 -12t12 -28z" />
<glyph unicode="&#x5b5;" d="M-30 -116q0 -16 -12 -28t-28 -12t-28 12t-12 28t12 28t28 12t28 -12t12 -28zM110 -116q0 -16 -12 -28t-28 -12t-28 12t-12 28t12 28t28 12t28 -12t12 -28z" />
<glyph unicode="&#x5b6;" d="M40 -237q0 -17 -12 -28.5t-28 -11.5t-28 11.5t-12 28.5t12 28.5t28 11.5t28 -11.5t12 -28.5zM-28 -116q0 -16 -12 -28t-28 -12t-28 12t-12 28t12 28t28 12t28 -12t12 -28zM108 -116q0 -16 -12 -28t-28 -12t-28 12t-12 28t12 28t28 12t28 -12t12 -28z" />
<glyph unicode="&#x5b7;" d="M94 -122q0 -8 -2.5 -11t-11.5 -3h-160q-9 0 -11.5 3t-2.5 11v22q0 9 2.5 11.5t11.5 2.5h160q8 0 11 -2.5t3 -11.5v-22z" />
<glyph unicode="&#x5b8;" d="M94 -122q0 -8 -2.5 -11t-11.5 -3h-58l5 -39v-81q0 -12 -13 -12h-28q-8 0 -10.5 2t-2.5 10v81l5 39h-58q-9 0 -11.5 3t-2.5 11v22q0 9 2.5 11.5t11.5 2.5h160q8 0 11 -2.5t3 -11.5v-22z" />
<glyph unicode="&#x5b9;" d="M40 582q0 -16 -12 -28t-28 -12t-28 12t-12 28t12 28t28 12t28 -12t12 -28z" />
<glyph unicode="&#x5bb;" d="M-64 -113q0 -17 -12 -28.5t-28 -11.5t-28 11.5t-12 28.5t12 28.5t28 11.5t28 -11.5t12 -28.5zM40 -175q0 -17 -12 -28.5t-28 -11.5t-28 11.5t-12 28.5t12 28.5t28 11.5t28 -11.5t12 -28.5zM144 -237q0 -17 -12 -28.5t-28 -11.5t-28 11.5t-12 28.5t12 28.5t28 11.5 t28 -11.5t12 -28.5z" />
<glyph unicode="&#x5bc;" d="M40 240q0 -16 -12 -28t-28 -12t-28 12t-12 28t12 28t28 12t28 -12t12 -28z" />
<glyph unicode="&#x5bd;" horiz-adv-x="1000" />
<glyph unicode="&#x5be;" horiz-adv-x="313" d="M297 547l-39 -107h-248l40 107h247z" />
<glyph unicode="&#x5bf;" horiz-adv-x="392" d="M371 336l-39 -107h-311l40 107h310z" />
<glyph unicode="&#x5c1;" d="M40 582q0 -16 -12 -28t-28 -12t-28 12t-12 28t12 28t28 12t28 -12t12 -28z" />
<glyph unicode="&#x5c2;" d="M40 582q0 -16 -12 -28t-28 -12t-28 12t-12 28t12 28t28 12t28 -12t12 -28z" />
<glyph unicode="&#x5d0;" horiz-adv-x="666" d="M635 66l-106 -86l-321 371v-221l102 -24l-37 -126l-199 49v321l87 53l-80 92l106 84l270 -309v155l-74 35l63 121l140 -72v-250l-86 -34z" />
<glyph unicode="&#x5d1;" horiz-adv-x="551" d="M538 152l-30 -139q-129 -20 -229 -20q-150 0 -274 19l47 126q57 -16 225 -16q31 0 38 1v294h-209l-88 44l58 121l70 -34h302v-420q20 4 42.5 10t35.5 10z" />
<glyph unicode="&#x5d2;" horiz-adv-x="378" d="M361 21l-118 -32l-24 117l-47 -106h-169l66 137h142l-65 286l-90 27l48 125l138 -37z" />
<glyph unicode="&#x5d3;" horiz-adv-x="512" d="M515 548l-60 -132h-94l76 -398l-131 -36l-73 407l46 27h-190l-89 44l59 122l68 -34h388z" />
<glyph unicode="&#x5d4;" horiz-adv-x="627" d="M553 17l-132 -36v435h-289l-89 45l58 121l69 -34l383 1v-532zM215 17l-132 -36v331l132 37v-332z" />
<glyph unicode="&#x5d5;" horiz-adv-x="309" d="M243 21l-130 -40v442l-70 37l53 122l147 -79v-482z" />
<glyph unicode="&#x5d6;" horiz-adv-x="310" d="M307 548l-58 -132h-59l72 -399l-122 -35l-71 417l21 26l-83 34l56 123l66 -34h178z" />
<glyph unicode="&#x5d7;" horiz-adv-x="622" d="M548 17l-132 -36v435h-207v-399l-132 -36v412l45 28l-86 39l58 122l69 -34l385 1v-532z" />
<glyph unicode="&#x5d8;" horiz-adv-x="612" d="M579 548l-119 -495l-343 -73l-37 442l-79 38l58 122l144 -68l33 -383l115 25l63 260h-54l-90 44l59 122l70 -34h180z" />
<glyph unicode="&#x5d9;" horiz-adv-x="286" d="M224 270l-131 -39v192l-69 37l53 122l147 -80v-232z" />
<glyph unicode="&#x5da;" horiz-adv-x="490" d="M414 -168l-130 -36v618h-186l-87 45l57 123l69 -34h277v-716z" />
<glyph unicode="&#x5db;" horiz-adv-x="528" d="M452 37q-99 -44 -218 -44q-149 0 -234 20l49 125q9 -2 24.5 -4t54.5 -6q31 -2 57 -2h14q75 2 122 11v280h-208l-89 44l58 121l69 -34h301v-511z" />
<glyph unicode="&#x5dc;" horiz-adv-x="498" d="M489 556l-200 -541l-147 -35l159 442h-263v214l-77 38l59 123l151 -74v-167h318z" />
<glyph unicode="&#x5dd;" horiz-adv-x="638" d="M562 548v-548h-488v415l31 16l-72 29l58 122l70 -34h401zM430 132v285h-225v-285h225z" />
<glyph unicode="&#x5de;" horiz-adv-x="686" d="M610 40q-61 -24 -131 -34q-72 -10 -138 -11l33 137h13q26 0 51 3q29 5 41 9v272h-229v-399l-134 -36l1 442l-77 37l58 122l149 -71v-55l93 92h270v-508z" />
<glyph unicode="&#x5df;" horiz-adv-x="280" d="M203 -164l-130 -39v626l-70 37l53 122l147 -80v-666z" />
<glyph unicode="&#x5e0;" horiz-adv-x="385" d="M309 37q-99 -44 -211 -44q-34 0 -99 3l50 130q80 0 132 11v283l-104 39l56 121l176 -70v-473z" />
<glyph unicode="&#x5e1;" horiz-adv-x="645" d="M595 549l-79 -502l-340 -67l-112 421l36 27l-74 32l58 122l70 -33h441zM441 417h-249l76 -290l132 25z" />
<glyph unicode="&#x5e2;" horiz-adv-x="619" d="M573 549l-118 -484l-432 -95l50 143l131 23l-73 277l-96 47l59 122l135 -65l79 -295l-56 -79l94 28l66 253h-33l-79 36l59 122l70 -33h144z" />
<glyph unicode="&#x5e3;" horiz-adv-x="573" d="M498 -166l-133 -37v618h-196v-72q3 0 10.5 -0.5t12.5 -0.5l71 8l-26 -127q-34 -10 -78 -10q-9 0 -19 1q-55 2 -93 22v170l32 21l-70 31l58 124l69 -34h362v-714z" />
<glyph unicode="&#x5e4;" horiz-adv-x="599" d="M523 43q-115 -46 -256 -46q-60 0 -122.5 5t-94.5 10l-32 5l53 122q108 -10 190 -10q77 0 130 11v277h-192v-71q3 0 10 -0.5t13 -0.5l70 7l-26 -124q-34 -10 -80 -10h-16q-56 2 -94 22v168l34 21l-69 31l58 122l70 -33l354 -1v-505z" />
<glyph unicode="&#x5e5;" horiz-adv-x="534" d="M498 507l-64 -204l-96 -41l57 -126v-300l-129 -40v326l-134 292h-61l-69 43l67 127l51 -36h87l103 -225l39 106l-65 29l58 124z" />
<glyph unicode="&#x5e6;" horiz-adv-x="583" d="M511 501l-51 -197l-79 -34q59 -74 128 -149l-54 -121h-436l51 132h257q-76 93 -100 130q-11 17 -79 140l-125 58l58 122l161 -78q33 -86 89 -167l28 89l-74 34l58 122z" />
<glyph unicode="&#x5e7;" horiz-adv-x="624" d="M614 548l-196 -536l-154 -44l159 447h-311l-89 44l59 123l69 -34h463zM195 -166l-128 -36v512l128 37v-513z" />
<glyph unicode="&#x5e8;" horiz-adv-x="527" d="M451 17l-130 -36v435h-226l-88 45l57 121l68 -34h319v-531z" />
<glyph unicode="&#x5e9;" horiz-adv-x="787" d="M733 509l-133 -412l-377 -125l-121 456l-66 32l60 122l113 -54l79 -323l54 219l-74 36l60 122l164 -78l-78 -285l-112 -62l6 -24l191 70l74 231l-54 26l60 122z" />
<glyph unicode="&#x5ea;" horiz-adv-x="653" d="M576 17l-132 -36l-1 436h-207v-400q-72 -18 -129 -24q-21 -2 -44 -2q-41 0 -86 7l52 131l49 -3q4 0 12.5 0.5t11.5 0.5v265l48 36l-69 32l59 122l70 -34l366 1v-532z" />
<glyph unicode="&#x5f0;" horiz-adv-x="618" d="M552 21l-130 -40v442l-70 37l53 122l147 -79v-482zM243 21l-130 -40v442l-70 37l53 122l147 -79v-482z" />
<glyph unicode="&#x5f1;" horiz-adv-x="595" d="M529 21l-130 -40v442l-70 37l53 122l147 -79v-482zM224 270l-131 -39v192l-69 37l53 122l147 -80v-232z" />
<glyph unicode="&#x5f2;" horiz-adv-x="572" d="M510 270l-131 -39v192l-69 37l53 122l147 -80v-232zM224 270l-131 -39v192l-69 37l53 122l147 -80v-232z" />
<glyph unicode="&#x5f3;" horiz-adv-x="210" d="M158 536l-81 -96h-34l25 93h-20v121h110v-118z" />
<glyph unicode="&#x5f4;" horiz-adv-x="355" d="M310 534l-80 -94h-35l25 93h-20v121h110v-120zM164 534l-81 -94h-34l25 93h-20v121h110v-120z" />
<glyph unicode="&#x2000;" horiz-adv-x="398" />
<glyph unicode="&#x2001;" horiz-adv-x="797" />
<glyph unicode="&#x2002;" horiz-adv-x="398" />
<glyph unicode="&#x2003;" horiz-adv-x="797" />
<glyph unicode="&#x2004;" horiz-adv-x="265" />
<glyph unicode="&#x2005;" horiz-adv-x="199" />
<glyph unicode="&#x2006;" horiz-adv-x="132" />
<glyph unicode="&#x2007;" horiz-adv-x="132" />
<glyph unicode="&#x2008;" horiz-adv-x="99" />
<glyph unicode="&#x2009;" horiz-adv-x="159" />
<glyph unicode="&#x200a;" horiz-adv-x="44" />
<glyph unicode="&#x2010;" horiz-adv-x="434" d="M392 336l-39 -107h-311l40 107h310z" />
<glyph unicode="&#x2011;" horiz-adv-x="434" d="M392 336l-39 -107h-311l40 107h310z" />
<glyph unicode="&#x2013;" horiz-adv-x="313" d="M297 547l-39 -107h-248l40 107h247z" />
<glyph unicode="&#x2014;" horiz-adv-x="392" d="M371 336l-39 -107h-311l40 107h310z" />
<glyph unicode="&#x2018;" horiz-adv-x="210" d="M158 536l-81 -96h-34l25 93h-20v121h110v-118z" />
<glyph unicode="&#x2019;" horiz-adv-x="210" d="M158 536l-81 -96h-34l25 93h-20v121h110v-118z" />
<glyph unicode="&#x201a;" horiz-adv-x="162" d="M160 712l-60 -193h-60l27 193h93z" />
<glyph unicode="&#x201c;" horiz-adv-x="355" d="M310 534l-80 -94h-35l25 93h-20v121h110v-120zM164 534l-81 -94h-34l25 93h-20v121h110v-120z" />
<glyph unicode="&#x201d;" horiz-adv-x="355" d="M310 534l-80 -94h-35l25 93h-20v121h110v-120zM164 534l-81 -94h-34l25 93h-20v121h110v-120z" />
<glyph unicode="&#x201e;" horiz-adv-x="300" d="M270 712l-60 -193h-60l28 193h92zM150 712l-60 -193h-60l28 193h92z" />
<glyph unicode="&#x2020;" horiz-adv-x="427" d="M404 418q0 -15 -11 -26.5t-26 -10.5l-130 12l12 -441q0 -14 -10.5 -24.5t-25.5 -10.5t-26 10.5t-10 25.5l14 440l-132 -12q-13 -2 -24.5 9.5t-11.5 26.5t11 26t26 10l130 -15l-12 149q-1 14 9.5 25t25.5 11t26 -10.5t10 -25.5l-12 -148l131 14q15 1 25.5 -9.5t10.5 -25.5 z" />
<glyph unicode="&#x2021;" horiz-adv-x="427" d="M404 127q0 -15 -11 -26.5t-26 -10.5l-130 12l12 -150q1 -14 -10 -24.5t-26 -10.5t-26 10.5t-10 25.5l14 149l-132 -12q-13 -2 -24.5 9.5t-11.5 25.5q0 15 11 26.5t26 10.5l130 -15q-1 16 -7.5 58t-6.5 65t7 65t8 58l-132 -12q-13 -2 -24.5 9.5t-11.5 26.5t11 26t26 10 l130 -15l-12 149q-1 14 9.5 25t25.5 11t26 -10.5t10 -25.5l-12 -148l131 14q15 1 25.5 -9.5t10.5 -25.5t-11 -26.5t-26 -10.5l-130 12l6 -39q4 -25 6.5 -45.5t2.5 -38.5t-2.5 -38.5t-6.5 -45.5l-6 -38l131 14q15 1 25.5 -9.5t10.5 -25.5z" />
<glyph unicode="&#x2022;" horiz-adv-x="350" d="M300 331q0 -52 -35.5 -87.5t-87.5 -35.5t-87 35.5t-35 87.5q0 51 35 86q34 36 87 36t87 -36q36 -35 36 -86z" />
<glyph unicode="&#x2026;" horiz-adv-x="535" d="M465 59v-28q0 -44 -44 -44t-44 44v28q0 44 44 44t44 -44zM287 59v-28q0 -46 -44 -46t-44 46v28q0 45 44 45t44 -45zM108 59v-28q0 -44 -44 -44t-44 44v28q0 44 44 44t44 -44z" />
<glyph unicode="&#x202f;" horiz-adv-x="159" />
<glyph unicode="&#x2039;" horiz-adv-x="342" d="M267 90q0 -14 -15 -14q-9 0 -17 8l-162 143q-7 6 -7 15v17q0 10 7 16l162 143q10 8 17 8q15 0 15 -15q0 -9 -5 -16l-124 -144l124 -145q5 -6 5 -16z" />
<glyph unicode="&#x203a;" horiz-adv-x="342" d="M276 242q0 -9 -7 -15l-162 -143q-8 -8 -17 -8q-15 0 -15 14q0 10 5 16l124 145l-124 144q-5 7 -5 16q0 15 15 15q7 0 17 -8l162 -143q7 -6 7 -16v-17z" />
<glyph unicode="&#x205f;" horiz-adv-x="199" />
<glyph unicode="&#x20ac;" horiz-adv-x="473" d="M432 432q0 -2 -1.5 -4.5t-1.5 -3.5l-21 -39q-4 -6 -6 -6l-15 12q-15 12 -41 24t-52 12q-103 0 -122 -116h166q7 0 10.5 -2t4 -5t0.5 -10v-16q0 -11 -17 -11h-168q-1 -9 -1 -27t1 -27h172q7 0 10.5 -2t4 -5t0.5 -10v-16q0 -11 -17 -11h-166q18 -116 110 -116q29 0 58 10.5 t46.5 20.5t18.5 10q2 0 6 -6l17 -42q0 -1 1.5 -3.5t1.5 -4.5q0 -6 -23.5 -18t-62 -23t-72.5 -11q-76 0 -124.5 48.5t-59.5 134.5h-48q-12 0 -12 11v16q0 7 0.5 10t4 5t10.5 2h41v12q0 16 2 42h-48q-12 0 -12 11v16q0 7 0.5 10t4 5t10.5 2h51q17 86 68.5 134.5t126.5 48.5 q46 0 95 -24t49 -38z" />
<glyph unicode="&#x2122;" horiz-adv-x="1000" d="M305 318h-66v339h-129v59h325v-59h-130v-339zM541 318h-62v398h98l101 -318l97 318h96v-398h-61v334l-102 -334h-61l-106 339v-339z" />
<glyph unicode="&#xfb00;" horiz-adv-x="666" d="M768 611q0 -15 -13 -28t-27 -13q-21 0 -56 44q-33 44 -67 44q-47 0 -60 -49q-6 -25 -6 -130v-32h115v-35h-115v-294q0 -62 14 -79q18 -21 48 -21h41v-18h-267v18h20q43 0 58 36q5 18 5 64v294h-86v35h86v30q0 133 87 188q43 28 100 28q50 0 94 -33q29 -23 29 -49z M435 611q0 -15 -13 -28t-27 -13q-21 0 -56 44q-33 44 -67 44q-47 0 -60 -49q-6 -25 -6 -130v-32h115v-35h-115v-294q0 -62 14 -79q18 -21 48 -21h41v-18h-267v18h20q43 0 58 36q5 18 5 64v294h-86v35h86v30q0 133 87 188q43 28 100 28q50 0 94 -33q29 -23 29 -49z" />
<glyph unicode="&#xfb01;" horiz-adv-x="570" d="M552 23q0 -10 -7 -16.5t-16 -6.5h-178q-10 0 -16.5 6t-6.5 16q0 9 7 16t16 7h50v354h-220v-354h51q9 0 16 -6.5t7 -15.5t-7 -16t-16 -7h-179q-9 0 -16 6.5t-7 15.5t7.5 16t15.5 7h51v354h-50q-9 0 -16 6.5t-7 15.5t7.5 16t15.5 7h50q0 83 15 116q41 90 178 90 q79 0 134 -19q16 -5 16 -22v-54q0 -14 -15 -14h-12q-11 0 -14 16q-11 52 -102 52q-34 0 -58 -8.5t-36.5 -21t-19 -36.5t-8 -44t-1.5 -55h274q9 0 16 -6.5t7 -15.5v-377h51q9 0 16 -6.5t7 -15.5z" />
<glyph unicode="&#xfb02;" horiz-adv-x="570" d="M545 23q0 -10 -7 -16.5t-16 -6.5h-177q-10 0 -16.5 6t-6.5 16q0 9 7 16t16 7h50v560h-91q-43 0 -68.5 -9t-37 -33t-14.5 -48t-3 -71h100q10 0 16.5 -6.5t6.5 -15.5q0 -10 -7 -16.5t-16 -6.5h-100v-354h51q9 0 16 -6.5t7 -15.5t-7 -16t-16 -7h-179q-9 0 -16 6.5t-7 15.5 t7.5 16t15.5 7h51v354h-50q-9 0 -16 6.5t-7 15.5t7.5 16t15.5 7h50q0 83 15 116q41 90 178 90h152q10 0 16.5 -6.5t6.5 -15.5v-583h50q10 0 16.5 -6.5t6.5 -15.5z" />
<glyph unicode="&#xfb03;" horiz-adv-x="944" d="M860 645q0 -21 -14 -35.5t-35 -14.5t-35.5 14.5t-14.5 35.5t14.5 35t35.5 14t35 -14t14 -35zM919 18v-18h-217v18q50 0 62 27q6 13 6 56v172q0 76 -4 95q-6 28 -31 28q-12 0 -33 -8l-7 18l135 54h22v-359q0 -63 24 -77q12 -6 43 -6zM768 611q0 -15 -13 -28t-27 -13 q-21 0 -56 44q-33 44 -67 44q-47 0 -60 -49q-6 -25 -6 -130v-32h115v-35h-115v-294q0 -62 14 -79q18 -21 48 -21h41v-18h-267v18h20q43 0 58 36q5 18 5 64v294h-86v35h86v30q0 133 87 188q43 28 100 28q50 0 94 -33q29 -23 29 -49zM435 611q0 -15 -13 -28t-27 -13 q-21 0 -56 44q-33 44 -67 44q-47 0 -60 -49q-6 -25 -6 -130v-32h115v-35h-115v-294q0 -62 14 -79q18 -21 48 -21h41v-18h-267v18h20q43 0 58 36q5 18 5 64v294h-86v35h86v30q0 133 87 188q43 28 100 28q50 0 94 -33q29 -23 29 -49z" />
<glyph unicode="&#xfb04;" horiz-adv-x="944" d="M923 18v-18h-219v18q48 0 60 27q6 15 6 56v406q0 105 -14 117q-8 6 -20 6q-14 0 -32 -7l-8 17l133 54h22v-593q0 -63 25 -76q13 -7 47 -7zM768 611q0 -15 -13 -28t-27 -13q-21 0 -56 44q-33 44 -67 44q-47 0 -60 -49q-6 -25 -6 -130v-32h115v-35h-115v-294q0 -62 14 -79 q18 -21 48 -21h41v-18h-267v18h20q43 0 58 36q5 18 5 64v294h-86v35h86v30q0 133 87 188q43 28 100 28q50 0 94 -33q29 -23 29 -49zM435 611q0 -15 -13 -28t-27 -13q-21 0 -56 44q-33 44 -67 44q-47 0 -60 -49q-6 -25 -6 -130v-32h115v-35h-115v-294q0 -62 14 -79 q18 -21 48 -21h41v-18h-267v18h20q43 0 58 36q5 18 5 64v294h-86v35h86v30q0 133 87 188q43 28 100 28q50 0 94 -33q29 -23 29 -49z" />
<glyph unicode="&#xfb06;" horiz-adv-x="667" d="M649 89h19q-35 -96 -112 -96q-55 0 -76 48q-10 21 -10 71v301h-71v16q60 24 105 97q9 13 31 68h15v-147h105v-34h-105v-290q0 -74 45 -74q38 0 54 40zM354 122q0 -60 -45 -98q-44 -38 -104 -38q-43 0 -94 15q-18 5 -27 5q-11 0 -17 -13h-16v160h16q12 -59 45 -96 q38 -42 94 -42q31 0 53.5 19t22.5 49q0 39 -42 71q-19 16 -80 45q-52 25 -77 49q-34 33 -34 83q0 57 39 93t97 36q25 0 64 -11q22 -7 33 -7q13 0 22 18h16v-152h-16q-15 58 -38 87q-30 37 -83 37q-29 0 -51 -15q-26 -17 -26 -43q0 -52 78 -90l71 -34q99 -50 99 -128z" />
<glyph unicode="&#xfb1d;" horiz-adv-x="286" d="M224 270l-131 -39v192l-69 37l53 122l147 -80v-232zM40 -116q0 -16 -12 -28t-28 -12t-28 12t-12 28t12 28t28 12t28 -12t12 -28z" />
<glyph unicode="&#xfb1f;" horiz-adv-x="1000" />
<glyph unicode="&#xfb20;" horiz-adv-x="619" d="M573 549l-118 -484l-432 -95l50 143l131 23l-73 277l-96 47l59 122l135 -65l79 -295l-56 -79l94 28l66 253h-33l-79 36l59 122l70 -33h144z" />
<glyph unicode="&#xfb21;" horiz-adv-x="666" d="M635 66l-106 -86l-321 371v-221l102 -24l-37 -126l-199 49v321l87 53l-80 92l106 84l270 -309v155l-74 35l63 121l140 -72v-250l-86 -34z" />
<glyph unicode="&#xfb22;" horiz-adv-x="512" d="M515 548l-60 -132h-94l76 -398l-131 -36l-73 407l46 27h-190l-89 44l59 122l68 -34h388z" />
<glyph unicode="&#xfb23;" horiz-adv-x="627" d="M553 17l-132 -36v435h-289l-89 45l58 121l69 -34l383 1v-532zM215 17l-132 -36v331l132 37v-332z" />
<glyph unicode="&#xfb24;" horiz-adv-x="528" d="M452 37q-99 -44 -218 -44q-149 0 -234 20l49 125q9 -2 24.5 -4t54.5 -6q31 -2 57 -2h14q75 2 122 11v280h-208l-89 44l58 121l69 -34h301v-511z" />
<glyph unicode="&#xfb25;" horiz-adv-x="498" d="M489 556l-200 -541l-147 -35l159 442h-263v214l-77 38l59 123l151 -74v-167h318z" />
<glyph unicode="&#xfb26;" horiz-adv-x="638" d="M562 548v-548h-488v415l31 16l-72 29l58 122l70 -34h401zM430 132v285h-225v-285h225z" />
<glyph unicode="&#xfb27;" horiz-adv-x="527" d="M451 17l-130 -36v435h-226l-88 45l57 121l68 -34h319v-531z" />
<glyph unicode="&#xfb28;" horiz-adv-x="653" d="M576 17l-132 -36l-1 436h-207v-400q-72 -18 -129 -24q-21 -2 -44 -2q-41 0 -86 7l52 131l49 -3q4 0 12.5 0.5t11.5 0.5v265l48 36l-69 32l59 122l70 -34l366 1v-532z" />
<glyph unicode="&#xfb29;" horiz-adv-x="466" d="M424 269l-142 10l10 -143h-118l10 143l-142 -10v121l142 -9l-10 141h118l-10 -141l142 9v-121z" />
<glyph unicode="&#xfb2a;" d="M40 -116q0 -16 -12 -28t-28 -12t-28 12t-12 28t12 28t28 12t28 -12t12 -28z" />
<glyph unicode="&#xfb2b;" d="M40 -116q0 -16 -12 -28t-28 -12t-28 12t-12 28t12 28t28 12t28 -12t12 -28z" />
<glyph unicode="&#xfb2c;" d="M40 -116q0 -16 -12 -28t-28 -12t-28 12t-12 28t12 28t28 12t28 -12t12 -28z" />
<glyph unicode="&#xfb2d;" d="M40 -116q0 -16 -12 -28t-28 -12t-28 12t-12 28t12 28t28 12t28 -12t12 -28z" />
<glyph unicode="&#xfb2e;" horiz-adv-x="666" d="M635 66l-106 -86l-321 371v-221l102 -24l-37 -126l-199 49v321l87 53l-80 92l106 84l270 -309v155l-74 35l63 121l140 -72v-250l-86 -34zM94 -122q0 -8 -2.5 -11t-11.5 -3h-160q-9 0 -11.5 3t-2.5 11v22q0 9 2.5 11.5t11.5 2.5h160q8 0 11 -2.5t3 -11.5v-22z" />
<glyph unicode="&#xfb2f;" horiz-adv-x="666" d="M635 66l-106 -86l-321 371v-221l102 -24l-37 -126l-199 49v321l87 53l-80 92l106 84l270 -309v155l-74 35l63 121l140 -72v-250l-86 -34zM94 -122q0 -8 -2.5 -11t-11.5 -3h-58l5 -39v-81q0 -12 -13 -12h-28q-8 0 -10.5 2t-2.5 10v81l5 39h-58q-9 0 -11.5 3t-2.5 11v22 q0 9 2.5 11.5t11.5 2.5h160q8 0 11 -2.5t3 -11.5v-22z" />
<glyph unicode="&#xfb30;" horiz-adv-x="666" d="M635 66l-106 -86l-321 371v-221l102 -24l-37 -126l-199 49v321l87 53l-80 92l106 84l270 -309v155l-74 35l63 121l140 -72v-250l-86 -34zM40 240q0 -16 -12 -28t-28 -12t-28 12t-12 28t12 28t28 12t28 -12t12 -28z" />
<glyph unicode="&#xfb31;" d="M40 -116q0 -16 -12 -28t-28 -12t-28 12t-12 28t12 28t28 12t28 -12t12 -28z" />
<glyph unicode="&#xfb32;" d="M40 -116q0 -16 -12 -28t-28 -12t-28 12t-12 28t12 28t28 12t28 -12t12 -28z" />
<glyph unicode="&#xfb33;" d="M40 -116q0 -16 -12 -28t-28 -12t-28 12t-12 28t12 28t28 12t28 -12t12 -28z" />
<glyph unicode="&#xfb34;" d="M40 -116q0 -16 -12 -28t-28 -12t-28 12t-12 28t12 28t28 12t28 -12t12 -28z" />
<glyph unicode="&#xfb35;" d="M40 -116q0 -16 -12 -28t-28 -12t-28 12t-12 28t12 28t28 12t28 -12t12 -28z" />
<glyph unicode="&#xfb36;" d="M40 -116q0 -16 -12 -28t-28 -12t-28 12t-12 28t12 28t28 12t28 -12t12 -28z" />
<glyph unicode="&#xfb38;" d="M40 -116q0 -16 -12 -28t-28 -12t-28 12t-12 28t12 28t28 12t28 -12t12 -28z" />
<glyph unicode="&#xfb39;" d="M40 -116q0 -16 -12 -28t-28 -12t-28 12t-12 28t12 28t28 12t28 -12t12 -28z" />
<glyph unicode="&#xfb3a;" d="M40 -116q0 -16 -12 -28t-28 -12t-28 12t-12 28t12 28t28 12t28 -12t12 -28z" />
<glyph unicode="&#xfb3b;" d="M40 -116q0 -16 -12 -28t-28 -12t-28 12t-12 28t12 28t28 12t28 -12t12 -28z" />
<glyph unicode="&#xfb3c;" d="M40 -116q0 -16 -12 -28t-28 -12t-28 12t-12 28t12 28t28 12t28 -12t12 -28z" />
<glyph unicode="&#xfb3e;" d="M40 -116q0 -16 -12 -28t-28 -12t-28 12t-12 28t12 28t28 12t28 -12t12 -28z" />
<glyph unicode="&#xfb40;" d="M40 -116q0 -16 -12 -28t-28 -12t-28 12t-12 28t12 28t28 12t28 -12t12 -28z" />
<glyph unicode="&#xfb41;" d="M40 -116q0 -16 -12 -28t-28 -12t-28 12t-12 28t12 28t28 12t28 -12t12 -28z" />
<glyph unicode="&#xfb43;" horiz-adv-x="573" d="M498 -166l-133 -37v618h-196v-72q3 0 10.5 -0.5t12.5 -0.5l71 8l-26 -127q-34 -10 -78 -10q-9 0 -19 1q-55 2 -93 22v170l32 21l-70 31l58 124l69 -34h362v-714zM40 240q0 -16 -12 -28t-28 -12t-28 12t-12 28t12 28t28 12t28 -12t12 -28z" />
<glyph unicode="&#xfb44;" d="M40 -116q0 -16 -12 -28t-28 -12t-28 12t-12 28t12 28t28 12t28 -12t12 -28z" />
<glyph unicode="&#xfb46;" d="M40 -116q0 -16 -12 -28t-28 -12t-28 12t-12 28t12 28t28 12t28 -12t12 -28z" />
<glyph unicode="&#xfb47;" d="M40 -116q0 -16 -12 -28t-28 -12t-28 12t-12 28t12 28t28 12t28 -12t12 -28z" />
<glyph unicode="&#xfb48;" horiz-adv-x="527" d="M451 17l-130 -36v435h-226l-88 45l57 121l68 -34h319v-531zM40 240q0 -16 -12 -28t-28 -12t-28 12t-12 28t12 28t28 12t28 -12t12 -28z" />
<glyph unicode="&#xfb49;" d="M40 -116q0 -16 -12 -28t-28 -12t-28 12t-12 28t12 28t28 12t28 -12t12 -28z" />
<glyph unicode="&#xfb4a;" d="M40 -116q0 -16 -12 -28t-28 -12t-28 12t-12 28t12 28t28 12t28 -12t12 -28z" />
<glyph unicode="&#xfb4b;" d="M40 -116q0 -16 -12 -28t-28 -12t-28 12t-12 28t12 28t28 12t28 -12t12 -28z" />
<glyph unicode="&#xfb4c;" horiz-adv-x="943" d="M930 152l-30 -139q-129 -20 -229 -20q-150 0 -274 19l47 126q57 -16 225 -16q31 0 38 1v294h-209l-88 44l58 121l70 -34h302v-420q20 4 42.5 10t35.5 10zM371 336l-39 -107h-311l40 107h310z" />
<glyph unicode="&#xfb4d;" horiz-adv-x="920" d="M844 37q-99 -44 -218 -44q-149 0 -234 20l49 125q9 -2 24.5 -4t54.5 -6q31 -2 57 -2h14q75 2 122 11v280h-208l-89 44l58 121l69 -34h301v-511zM371 336l-39 -107h-311l40 107h310z" />
<glyph unicode="&#xfb4e;" horiz-adv-x="991" d="M915 43q-115 -46 -256 -46q-60 0 -122.5 5t-94.5 10l-32 5l53 122q108 -10 190 -10q77 0 130 11v277h-192v-71q3 0 10 -0.5t13 -0.5l70 7l-26 -124q-34 -10 -80 -10h-16q-56 2 -94 22v168l34 21l-69 31l58 122l70 -33l354 -1v-505zM371 336l-39 -107h-311l40 107h310z " />
<glyph unicode="&#xfb4f;" horiz-adv-x="1164" d="M1133 66l-106 -86l-321 371v-221l102 -24l-37 -126l-199 49v321l87 53l-80 92l106 84l270 -309v155l-74 35l63 121l140 -72v-250l-86 -34zM489 556l-200 -541l-147 -35l159 442h-263v214l-77 38l59 123l151 -74v-167h318z" />
</font>
</defs>
</svg>
